<svg width="1121" height="346" viewBox="0 0 1121 346" fill="none" xmlns="http://www.w3.org/2000/svg">
<line x1="60.6927" y1="159.625" x2="193.124" y2="304.69" stroke="black" stroke-width="10"/>
<line x1="163.066" y1="159.625" x2="295.497" y2="304.69" stroke="black" stroke-width="10" stroke-dasharray="20 20"/>
<line x1="258.469" y1="159.625" x2="390.9" y2="304.69" stroke="black" stroke-width="10"/>
<path d="M338.603 58.9142H154.759L154.369 55.6483C153.569 48.8597 150.306 42.6005 145.199 38.0574C140.091 33.5144 133.495 31.0032 126.659 31L115.289 31V49.6095H126.659C128.938 49.6098 131.138 50.4465 132.841 51.9609C134.544 53.4754 135.632 55.5622 135.899 57.8256L150.647 183.142C151.446 189.931 154.709 196.19 159.817 200.733C164.924 205.276 171.521 207.787 178.356 207.79H301.384V189.181H178.356C176.076 189.18 173.875 188.342 172.172 186.826C170.468 185.309 169.381 183.22 169.117 180.955L167.898 170.571H318.467L338.603 58.9142ZM302.91 151.962H165.711L156.955 77.5237H316.336L302.91 151.962Z" fill="#95D8E0"/>
<path d="M180.422 254.314C190.7 254.314 199.031 245.982 199.031 235.705C199.031 225.427 190.7 217.095 180.422 217.095C170.144 217.095 161.812 225.427 161.812 235.705C161.812 245.982 170.144 254.314 180.422 254.314Z" fill="black"/>
<path d="M273.469 254.314C283.747 254.314 292.079 245.982 292.079 235.705C292.079 225.427 283.747 217.095 273.469 217.095C263.192 217.095 254.86 225.427 254.86 235.705C254.86 245.982 263.192 254.314 273.469 254.314Z" fill="black"/>
<path d="M408 98.4C408 96.1333 408.267 94.6 408.8 93.8C409.467 92.8667 410.6 92.4 412.2 92.4C413.933 92.4 416.867 94.2 421 97.8C425.133 101.4 427.333 104.6 427.6 107.4C428.133 112.2 430.667 120.733 435.2 133C439.733 145.133 444.933 157.467 450.8 170C458.267 161.2 467.667 149.533 479 135C490.333 120.333 498.733 109.933 504.2 103.8C509.667 97.6667 513.6 94.6 516 94.6C518.4 94.6 520.933 95.9333 523.6 98.6C526.267 101.267 527.6 103.8 527.6 106.2C527.6 108.6 527.333 111.333 526.8 114.4C526.267 117.467 525.333 121.533 524 126.6C522.8 131.533 521.667 135.867 520.6 139.6C519.667 143.2 518.067 148.867 515.8 156.6C513.533 164.333 511.8 170.533 510.6 175.2C509.4 179.733 508 185.333 506.4 192C504.8 198.533 503.467 203.933 502.4 208.2C501.467 212.333 500.467 216.4 499.4 220.4C497.4 228.133 495.467 232 493.6 232C491.867 232 490.133 230.4 488.4 227.2C486.667 224 485.8 219.733 485.8 214.4C485.8 208.933 488.067 196.533 492.6 177.2C497.267 157.867 502.267 140.933 507.6 126.4C483.067 157.067 467.933 175.4 462.2 181.4C456.6 187.4 451.933 190.4 448.2 190.4C444.6 190.4 441.2 188.333 438 184.2C433.2 177.267 426.733 160.867 418.6 135C416.333 149 413.8 161 411 171C408.333 180.867 406.533 187.467 405.6 190.8C404.8 194 404.067 196.667 403.4 198.8C402.867 200.933 402.2 203.467 401.4 206.4C400.6 209.2 399.867 211.533 399.2 213.4C398.667 215.267 398.067 217.333 397.4 219.6C396.733 221.733 396.133 223.467 395.6 224.8C395.2 226.133 394.733 227.4 394.2 228.6C393.133 230.867 392.333 232 391.8 232C390.2 232 388.2 230.267 385.8 226.8C383.4 223.333 382.2 220 382.2 216.8C382.2 213.6 386.467 195.2 395 161.6C403.667 128 408 106.933 408 98.4ZM707.559 158.2L706.959 143.2C706.959 136.933 708.426 133.8 711.359 133.8C713.893 133.8 716.293 135.467 718.559 138.8C720.959 142 722.159 145.867 722.159 150.4C722.159 154.8 722.026 158.133 721.759 160.4C733.359 142.8 744.359 134 754.759 134C761.293 134 764.559 135.6 764.559 138.8C764.559 140.4 763.826 141.867 762.359 143.2C760.893 144.533 758.559 146.067 755.359 147.8C748.293 150.867 742.293 155.6 737.359 162C732.559 168.267 728.626 175.4 725.559 183.4C722.493 191.4 720.026 198.133 718.159 203.6C716.426 209.067 715.093 213.333 714.159 216.4C713.226 219.467 712.159 222.467 710.959 225.4C708.826 230.733 706.359 233.4 703.559 233.4C701.293 233.4 699.426 232.133 697.959 229.6C696.626 226.933 695.959 224.4 695.959 222C695.959 219.467 697.093 214.533 699.359 207.2C704.826 190.4 707.559 174.067 707.559 158.2ZM850.17 144.6C850.17 145.8 844.237 152.067 832.37 163.4C827.97 167.667 823.904 172.733 820.17 178.6C816.57 184.333 814.77 189.6 814.77 194.4C814.77 199.2 816.17 203.667 818.97 207.8C821.904 211.8 825.037 214.867 828.37 217C831.837 219 834.97 221 837.77 223C840.704 225 842.17 226.667 842.17 228C842.17 231.333 839.504 233 834.17 233C828.97 233 822.704 230.067 815.37 224.2C808.17 218.2 803.704 211.533 801.97 204.2C801.304 202.867 800.77 201.6 800.37 200.4C791.304 212.667 784.704 221.2 780.57 226C776.57 230.667 773.57 233 771.57 233C769.57 233 767.37 231.467 764.97 228.4C762.57 225.2 761.37 222.6 761.37 220.6C761.37 218.467 763.504 209.867 767.77 194.8C772.17 179.6 776.504 161.4 780.77 140.2C785.17 119 787.37 100.067 787.37 83.4C787.37 81.2667 787.637 79.8 788.17 79C788.837 78.2 790.17 77.8 792.17 77.8C794.17 77.8 796.637 79.8 799.57 83.8C802.504 87.6667 803.97 91.4667 803.97 95.2C803.97 107.067 801.57 123.667 796.77 145C791.97 166.333 786.237 186.6 779.57 205.8C794.637 184.333 807.637 167 818.57 153.8C829.637 140.467 836.437 133.8 838.97 133.8C841.637 133.8 844.17 135.067 846.57 137.6C848.97 140.133 850.17 142.467 850.17 144.6ZM967.959 213C967.959 215.533 969.426 216.8 972.359 216.8C977.426 216.8 983.559 215.4 990.759 212.6C998.093 209.667 1002.16 208.2 1002.96 208.2C1005.36 208.2 1006.56 209.467 1006.56 212C1006.56 215.867 1002.56 220.333 994.559 225.4C986.693 230.467 979.493 233 972.959 233C966.559 233 961.226 231.267 956.959 227.8C952.693 224.2 950.559 220.533 950.559 216.8C950.559 213.067 951.359 208.333 952.959 202.6C954.559 196.733 956.826 189.067 959.759 179.6C962.826 170 965.226 162.067 966.959 155.8C960.693 157.267 956.493 158 954.359 158C952.226 158 950.093 156.933 947.959 154.8C945.959 152.533 944.959 150.4 944.959 148.4C944.959 145.2 953.626 142.133 970.959 139.2C973.359 128.133 974.559 118.333 974.559 109.8C974.559 105.8 975.893 103.8 978.559 103.8C980.826 103.8 983.626 105.267 986.959 108.2C990.293 111 991.959 114.2 991.959 117.8C991.959 121.4 990.826 127.733 988.559 136.8C996.159 136.133 1002.23 135.8 1006.76 135.8C1014.76 135.8 1018.76 137.533 1018.76 141C1018.76 143 1016.56 144.667 1012.16 146C1007.89 147.333 998.826 149.4 984.959 152.2C982.159 162.733 978.626 174.8 974.359 188.4C970.093 201.867 967.959 210.067 967.959 213Z" fill="black"/>
<path d="M935.32 167C935.32 174.067 931.454 179.867 923.72 184.4C916.12 188.8 907.454 191 897.72 191C888.12 191 879.387 189.933 871.52 187.8C869.654 193.667 868.72 198.933 868.72 203.6C868.72 208.133 870.12 211.667 872.92 214.2C875.854 216.733 880.587 218 887.12 218C893.787 218 900.587 216.867 907.52 214.6C914.587 212.2 918.454 211 919.12 211C922.587 211 924.32 212.333 924.32 215C924.32 218.6 920.254 222.533 912.12 226.8C903.987 230.933 896.054 233 888.32 233C877.92 233 869.454 229.933 862.92 223.8C856.387 217.533 853.12 209.667 853.12 200.2C853.12 190.733 855.654 180.867 860.72 170.6C865.787 160.2 872.32 151.467 880.32 144.4C888.32 137.333 896.254 133.8 904.12 133.8C911.987 133.8 919.12 137.533 925.52 145C932.054 152.467 935.32 159.8 935.32 167ZM905.12 149.6C900.187 149.6 895.054 152.2 889.72 157.4C884.387 162.467 879.854 168.8 876.12 176.4C881.454 177.6 887.52 178.2 894.32 178.2C901.12 178.2 907.054 177.133 912.12 175C917.187 172.733 919.72 169.8 919.72 166.2C919.72 162.6 918.054 158.933 914.72 155.2C911.52 151.467 908.32 149.6 905.12 149.6Z" fill="#95D8E0"/>
<path d="M549.167 108.208C549.167 99.8073 555.974 93 564.375 93C572.776 93 579.583 99.8073 579.583 108.208C579.583 116.609 572.776 123.417 564.375 123.417C555.974 123.417 549.167 116.609 549.167 108.208ZM573.5 184.25H549.167V147.75C549.167 144.392 551.898 141.667 555.25 141.667H628.25V129.5H555.25C545.188 129.5 537 137.688 537 147.75V196.417H549.167V239H561.333V196.417H573.5V239H585.667V153.833H573.5V184.25ZM683 205.542V239H597.833V205.542C597.833 197.153 604.659 190.333 613.042 190.333H616.083V169.042C616.083 160.653 622.909 153.833 631.292 153.833H649.542C657.924 153.833 664.75 160.653 664.75 169.042V190.333H667.792C676.174 190.333 683 197.153 683 205.542ZM628.25 190.333H652.583V169.042C652.583 167.369 651.221 166 649.542 166H631.292C629.613 166 628.25 167.369 628.25 169.042V190.333ZM634.333 205.542C634.333 203.869 632.971 202.5 631.292 202.5H613.042C611.363 202.5 610 203.869 610 205.542V226.833H634.333V205.542ZM670.833 205.542C670.833 203.869 669.471 202.5 667.792 202.5H649.542C647.863 202.5 646.5 203.869 646.5 205.542V226.833H670.833V205.542Z" fill="black"/>
</svg>
